<?xml version="1.0" encoding="utf-8"?>
<!-- Generator: Adobe Illustrator 22.1.0, SVG Export Plug-In . SVG Version: 6.00 Build 0)  -->
<svg version="1.1" id="レイヤー_1" xmlns="http://www.w3.org/2000/svg" xmlns:xlink="http://www.w3.org/1999/xlink" x="0px"
	 y="0px" width="45px" height="40px" viewBox="0 0 45 40" style="enable-background:new 0 0 45 40;" xml:space="preserve">
<style type="text/css">
	.st0{fill:#FFFFFF;}
	.st1{fill:#666666;}
	.st2{fill:#333333;}
</style>
<g>
	<rect class="st0" width="45" height="40"/>
</g>
<g>
	<g>
		<path class="st1" d="M33.35,22.212l-3.668-3.668c-0.205,0.315-0.425,0.618-0.661,0.908L27.668,18.1
			c0.058-0.076,0.116-0.153,0.172-0.231c0.038-0.053,0.075-0.105,0.112-0.159c0.006-0.008,0.012-0.017,0.018-0.025
			c0.037-0.054,0.074-0.108,0.109-0.163c0.077-0.118,0.152-0.237,0.223-0.359c0.76-1.297,1.197-2.805,1.197-4.414
			s-0.437-3.117-1.197-4.414c-0.76-1.295-1.843-2.378-3.138-3.138C23.867,4.437,22.358,4,20.749,4c-1.608,0-3.117,0.437-4.414,1.197
			c-0.053,0.031-0.106,0.063-0.159,0.096c-0.067,0.041-0.134,0.084-0.2,0.127c-0.117,0.077-0.233,0.156-0.347,0.238
			c-0.038,0.027-0.075,0.055-0.113,0.083c-0.039,0.03-0.079,0.06-0.118,0.089c-0.036,0.029-0.073,0.057-0.109,0.086
			c-0.071,0.057-0.141,0.115-0.211,0.174c-0.355,0.302-0.686,0.633-0.988,0.988c-0.06,0.069-0.117,0.139-0.174,0.211
			c-0.029,0.036-0.058,0.073-0.086,0.109c-0.03,0.039-0.06,0.079-0.089,0.118c-0.028,0.037-0.056,0.075-0.083,0.113
			c-0.082,0.113-0.162,0.229-0.238,0.347c-0.043,0.066-0.086,0.133-0.127,0.2c-0.033,0.053-0.065,0.105-0.096,0.159
			C12.437,9.632,12,11.141,12,12.749s0.437,3.117,1.197,4.414c0.76,1.295,1.843,2.378,3.138,3.138
			c1.297,0.76,2.805,1.197,4.414,1.197c1.608,0,3.117-0.437,4.414-1.197c0.081-0.048,0.161-0.096,0.24-0.146
			c0.04-0.025,0.079-0.05,0.119-0.076c0.055-0.035,0.109-0.072,0.163-0.109c0.008-0.006,0.017-0.011,0.025-0.018
			c0.053-0.036,0.106-0.074,0.159-0.112c0.078-0.056,0.155-0.114,0.231-0.172l1.353,1.353c-0.291,0.236-0.594,0.457-0.908,0.661
			l3.668,3.668c0.433,0.433,1.001,0.65,1.569,0.65c0.568,0,1.136-0.217,1.569-0.65C34.217,24.483,34.217,23.079,33.35,22.212z
			 M24.232,17.891c-0.018,0.013-0.035,0.025-0.054,0.036c-0.02,0.015-0.041,0.028-0.062,0.041c-0.019,0.013-0.038,0.025-0.057,0.037
			c-0.025,0.016-0.049,0.031-0.074,0.046c-0.023,0.015-0.046,0.029-0.07,0.042c-0.05,0.03-0.1,0.058-0.151,0.087
			c-0.004,0.003-0.008,0.004-0.012,0.007c-0.041,0.023-0.083,0.045-0.125,0.067c-0.017,0.01-0.033,0.018-0.05,0.027
			c-0.033,0.017-0.067,0.034-0.1,0.05c-0.064,0.032-0.129,0.062-0.194,0.091c-0.774,0.347-1.632,0.541-2.534,0.541
			c-0.902,0-1.76-0.193-2.534-0.541c-1.392-0.624-2.514-1.746-3.138-3.138c-0.347-0.774-0.541-1.632-0.541-2.534
			c0-0.902,0.193-1.76,0.541-2.534c0.098-0.217,0.207-0.429,0.328-0.632c0.014-0.023,0.028-0.046,0.042-0.07
			c0.039-0.065,0.081-0.13,0.124-0.193c0.023-0.036,0.048-0.072,0.073-0.107c0.03-0.044,0.061-0.088,0.093-0.131
			c0.049-0.067,0.099-0.133,0.15-0.197c0.294-0.368,0.628-0.703,0.997-0.997c0.065-0.051,0.131-0.101,0.197-0.15
			c0.043-0.032,0.087-0.063,0.131-0.093c0.036-0.025,0.071-0.049,0.107-0.073c0.063-0.043,0.128-0.084,0.193-0.124
			c0.023-0.015,0.046-0.029,0.07-0.042c0.204-0.121,0.415-0.231,0.632-0.328c0.774-0.347,1.632-0.541,2.534-0.541
			c0.902,0,1.76,0.193,2.534,0.541c1.392,0.624,2.514,1.746,3.138,3.138c0.347,0.774,0.541,1.632,0.541,2.534
			c0,0.902-0.193,1.76-0.541,2.534c-0.029,0.065-0.06,0.13-0.091,0.194c-0.017,0.034-0.033,0.067-0.05,0.1
			c-0.008,0.017-0.017,0.034-0.027,0.05c-0.022,0.042-0.044,0.084-0.067,0.125c-0.003,0.004-0.004,0.008-0.007,0.012
			c-0.028,0.051-0.057,0.101-0.087,0.151c-0.014,0.023-0.028,0.046-0.042,0.07c-0.015,0.025-0.03,0.049-0.046,0.074
			c-0.012,0.019-0.024,0.038-0.037,0.057c-0.013,0.021-0.027,0.042-0.041,0.062c-0.011,0.018-0.023,0.036-0.036,0.054
			c-0.012,0.018-0.024,0.035-0.037,0.053c-0.006,0.011-0.014,0.022-0.022,0.032c-0.014,0.021-0.029,0.042-0.044,0.063
			c-0.115,0.16-0.238,0.314-0.369,0.462c-0.023,0.027-0.048,0.054-0.072,0.081c-0.031,0.034-0.062,0.068-0.094,0.101
			c-0.037,0.039-0.075,0.077-0.113,0.115c-0.038,0.038-0.077,0.076-0.115,0.113c-0.033,0.032-0.067,0.063-0.101,0.094
			c-0.027,0.024-0.053,0.048-0.081,0.072c-0.148,0.131-0.302,0.254-0.462,0.369c-0.021,0.015-0.042,0.03-0.063,0.044
			c-0.01,0.008-0.021,0.016-0.032,0.022C24.268,17.867,24.25,17.879,24.232,17.891z"/>
	</g>
</g>
<g>
	<g>
		<path class="st2" d="M6.216,35.912c1.752-0.544,2.344-0.977,2.672-1.248H6.256v-0.688H9.56v-0.537h0.824v0.537h3.36v0.688H11.04
			c0.608,0.48,1.488,0.928,2.792,1.225l-0.44,0.807c-1.615-0.512-2.567-1.239-3.008-1.695v1.768H9.56V35
			c-0.527,0.512-1.552,1.24-2.936,1.704L6.216,35.912z M8.848,30.969c0.192-0.265,0.265-0.393,0.32-0.48H7.24v0.951H6.416v-1.647
			H9.56V29.24h0.872v0.552h3.177v1.647h-0.824v-0.951h-2.656c-0.063,0.111-0.152,0.264-0.304,0.48h2.704v0.607h-0.544
			c-0.08,0.16-0.257,0.48-0.752,0.896c0.52,0.135,1.456,0.416,2.104,0.615l-0.52,0.704c-1.072-0.424-1.721-0.601-2.433-0.792
			c-0.832,0.359-2.128,0.6-3.439,0.688l-0.208-0.744c0.416-0.008,1.256-0.039,2.359-0.264c-0.584-0.136-1.063-0.224-1.479-0.295
			c0.224-0.209,0.392-0.361,0.76-0.809H7.504v-0.607H8.848z M9.368,31.576c-0.168,0.199-0.272,0.313-0.424,0.456
			c0.52,0.079,0.912,0.144,1.344,0.231c0.439-0.264,0.616-0.488,0.768-0.688H9.368z"/>
		<path class="st2" d="M15.581,32.848c-0.232,0.36-0.385,0.545-0.544,0.729l-0.385-0.992c0.464-0.527,1.272-2.023,1.408-3.328
			l0.864,0.12c-0.104,0.544-0.232,1.072-0.528,1.849v5.543h-0.815V32.848z M18.165,31.561c-0.265,0.72-0.48,1.071-0.664,1.367
			l-0.736-0.504c0.44-0.703,0.824-1.504,1.072-2.824l0.8,0.129c-0.048,0.256-0.08,0.472-0.216,1.008h1.023v-1.48h0.849v1.48h1.815
			v0.824h-1.815v1.711h2.008v0.849h-2.008v2.647h-0.849V34.12h-2.576v-0.849h2.576v-1.711H18.165z"/>
		<path class="st2" d="M27.423,31.216c-0.424,0.36-0.64,0.464-0.896,0.593l-0.393-0.736v0.424h-0.681v0.416
			c0.145,0.313,0.497,0.871,1.025,1.392l-0.408,0.776c-0.393-0.592-0.44-0.664-0.617-1.049v3.736h-0.759V33.16
			c-0.208,0.801-0.432,1.264-0.904,2l-0.336-1.057c0.433-0.575,0.841-1.225,1.152-2.607h-1.016v-0.792h1.104v-1.472h0.759v1.472
			h0.681v0.36c1.008-0.528,1.544-1.072,2.057-1.824h1.039c0.697,0.943,1.104,1.288,2.088,1.801l-0.439,0.719
			c-0.216-0.128-0.456-0.264-0.815-0.552v0.368h-0.961v0.641h1.776v2.343h-1.568c0.24,0.504,0.577,0.983,1.936,1.44l-0.367,0.768
			c-0.432-0.152-1.552-0.544-2.152-1.784c-0.567,1.168-1.432,1.584-2.183,1.815l-0.417-0.735c0.448-0.112,1.528-0.392,1.96-1.504
			h-1.56v-2.343h1.792v-0.641h-0.896V31.216z M28.264,33.865c0.048-0.297,0.056-0.434,0.056-0.953h-1.024v0.953H28.264z
			 M29.679,30.889c-0.528-0.488-0.792-0.824-0.96-1.049c-0.224,0.279-0.495,0.625-0.928,1.049H29.679z M30.111,33.865v-0.953h-1.009
			c0,0.496,0,0.616-0.04,0.953H30.111z"/>
		<path class="st2" d="M34.979,35.191c-0.367,0.449-0.872,0.929-2.056,1.521l-0.496-0.672c0.353-0.151,1.248-0.544,1.904-1.312
			L34.979,35.191z M35.035,33.855c0.048-0.039,0.071-0.056,0.136-0.111c-0.192-0.145-0.88-0.6-1.576-0.92l0.528-0.641
			c0.191,0.104,0.312,0.168,0.456,0.265c0.104-0.104,0.336-0.345,0.52-0.632h-1.72v0.855h-0.808v-1.576h3.191v-0.535h-3.056v-0.744
			h3.056V29.24h0.816v0.576h3.048v0.744h-3.048v0.535h3.184v1.576h-0.808v-0.855h-2.792c-0.185,0.256-0.328,0.447-0.944,1.039
			c0.12,0.08,0.288,0.192,0.521,0.369c0.144-0.137,0.728-0.688,1.256-1.313l0.735,0.447c-0.432,0.505-1.216,1.193-1.552,1.48
			c0.265-0.008,1.528-0.048,1.816-0.056c-0.296-0.248-0.376-0.304-0.552-0.433l0.575-0.527c0.841,0.632,1.145,0.871,1.824,1.668
			l-0.576,0.592c-0.128-0.176-0.224-0.296-0.56-0.641l-2.128,0.121v2.195h-0.816v-2.168c-0.456,0.016-3.072,0.064-3.288,0.064
			l-0.04-0.792C33.067,33.864,34.371,33.855,35.035,33.855z M39.443,36.68c-0.984-0.464-1.545-0.832-2.192-1.512l0.576-0.488
			c0.616,0.616,1.184,0.952,2.12,1.313L39.443,36.68z"/>
	</g>
</g>
<g>
</g>
<g>
</g>
<g>
</g>
<g>
</g>
<g>
</g>
<g>
</g>
<g>
</g>
<g>
</g>
<g>
</g>
<g>
</g>
<g>
</g>
<g>
</g>
<g>
</g>
<g>
</g>
<g>
</g>
</svg>
