<svg id="拡声器のアイコンその7" xmlns="http://www.w3.org/2000/svg" width="16.993" height="17" viewBox="0 0 16.993 17">
  <path id="Path_2501" data-name="Path 2501" d="M4.6,118.016v-6.8H2.037A1.927,1.927,0,0,0,.11,113.146v2.944a1.927,1.927,0,0,0,1.927,1.927H4.6Z" transform="translate(-0.11 -107.526)" fill="#0068b5"/>
  <path id="Path_2502" data-name="Path 2502" d="M179.494.59l-4.523,2.42a5.785,5.785,0,0,1-2.726.683H170.7v6.8h1.542a5.78,5.78,0,0,1,2.726.683l4.523,2.419v.59h1.178V0h-1.178Zm.013,11.687-3.986-2.132a6.976,6.976,0,0,0-3.276-.821h-.377V4.858h.377a6.976,6.976,0,0,0,3.276-.821l3.986-2.132Z" transform="translate(-165.039)" fill="#0068b5"/>
  <rect id="Rectangle_308" data-name="Rectangle 308" width="0.951" height="2.719" transform="translate(16.041 5.732)" fill="#0068b5"/>
  <path id="Path_2503" data-name="Path 2503" d="M18.969,352.7v.754a.863.863,0,0,0,.863.863h1.439a.863.863,0,0,0,.863-.863v-.473l1.477-4.079H20.164Z" transform="translate(-18.343 -337.321)" fill="#0068b5"/>
</svg>
