<svg xmlns="http://www.w3.org/2000/svg" width="13.389" height="20" viewBox="0 0 13.389 20">
  <g id="人物の無料素材_1_" data-name="人物の無料素材 (1)" transform="translate(-84.617)">
    <path id="Path_2497" data-name="Path 2497" d="M128.538,10.364a5.182,5.182,0,1,0-5.181-5.182A5.182,5.182,0,0,0,128.538,10.364Z" transform="translate(-37.227)" fill="#0068b5"/>
    <path id="Path_2498" data-name="Path 2498" d="M97.947,286.106a9.968,9.968,0,0,0-2.248-4.2.66.66,0,0,0-.762-.056,6.89,6.89,0,0,1-7.251,0,.66.66,0,0,0-.762.056,9.969,9.969,0,0,0-2.248,4.2c-.568,3.412,3.076,4.644,6.636,4.644S98.516,289.517,97.947,286.106Z" transform="translate(0 -270.75)" fill="#0068b5"/>
  </g>
</svg>
