<?xml version="1.0" encoding="UTF-8"?><svg id="_イヤー_2" xmlns="http://www.w3.org/2000/svg" viewBox="0 0 1042.1 131.64"><defs><style>.cls-1{fill:#fff;}</style></defs><g id="_イヤー_1-2"><g><path class="cls-1" d="M173.76,26.18h-40.73V2.18h110.91V26.18h-40.73v103.28h-29.46V26.18Z"/><path class="cls-1" d="M271.5,127.55c-9.4-2.73-16.94-6.27-22.64-10.64l10-22.18c5.46,4,11.94,7.21,19.46,9.63,7.51,2.43,15.03,3.64,22.55,3.64,8.36,0,14.54-1.24,18.55-3.73,4-2.48,6-5.79,6-9.91,0-3.03-1.18-5.54-3.55-7.55-2.36-2-5.39-3.6-9.09-4.82-3.7-1.21-8.7-2.55-15-4-9.7-2.3-17.64-4.6-23.82-6.91-6.18-2.3-11.48-6-15.91-11.09-4.43-5.09-6.64-11.88-6.64-20.36,0-7.39,2-14.09,6-20.09,4-6,10.03-10.76,18.09-14.27,8.06-3.51,17.91-5.27,29.54-5.27,8.12,0,16.06,.97,23.82,2.91,7.76,1.94,14.55,4.73,20.36,8.36l-9.09,22.36c-11.76-6.66-23.52-10-35.27-10-8.24,0-14.33,1.34-18.27,4-3.94,2.67-5.91,6.18-5.91,10.55s2.27,7.61,6.82,9.73c4.55,2.12,11.48,4.21,20.82,6.27,9.69,2.3,17.63,4.61,23.82,6.91,6.18,2.3,11.48,5.94,15.91,10.91,4.42,4.97,6.64,11.7,6.64,20.18,0,7.27-2.03,13.91-6.09,19.91-4.07,6-10.15,10.76-18.28,14.28-8.12,3.51-18,5.27-29.64,5.27-10.06,0-19.79-1.36-29.18-4.09Z"/><path class="cls-1" d="M891.01,129.46l-24.55-35.46h-27.09v35.46h-29.46V2.18h55.09c11.27,0,21.06,1.88,29.36,5.64,8.3,3.76,14.7,9.09,19.18,16,4.48,6.91,6.73,15.09,6.73,24.54s-2.28,17.61-6.82,24.46c-4.54,6.85-11,12.09-19.36,15.73l28.54,40.91h-31.64Zm-7.45-97.55c-4.61-3.82-11.34-5.73-20.18-5.73h-24v44.36h24c8.85,0,15.58-1.94,20.18-5.82,4.6-3.88,6.91-9.33,6.91-16.37s-2.3-12.64-6.91-16.45Z"/><path class="cls-1" d="M1042.1,105.82v23.64h-98.55V2.18h96.19V25.82h-66.91v27.64h59.09v22.91h-59.09v29.46h69.27Z"/><path class="cls-1" d="M625.85,124.7l-.18-73.51-36.05,60.56h-12.78l-35.88-58.98V124.7h-26.61V2.18h23.46l45.86,76.14L628.82,2.18h23.28l.35,122.52h-26.6Z"/><polygon class="cls-1" points="751.32 .48 707.99 .48 663.53 125.72 706.86 125.72 751.32 .48"/><polygon class="cls-1" points="707.43 .48 750.75 .48 795.21 97.38 751.88 97.38 707.43 .48"/><polygon class="cls-1" points="87.78 .48 44.46 .48 0 125.72 43.33 125.72 87.78 .48"/><polygon class="cls-1" points="44.46 .48 87.78 .48 132.24 97.38 88.91 97.38 44.46 .48"/><g><circle class="cls-1" cx="396.71" cy="36.61" r="14.03"/><circle class="cls-1" cx="478.9" cy="36.61" r="14.03"/><path class="cls-1" d="M437.81,129.46c-27.6,0-50.2-21.85-51.4-49.16h-.05v-2.29h20.87c0,16.86,13.72,30.58,30.58,30.58s30.58-13.72,30.58-30.58h20.87l-.05,2.29c-1.2,27.31-23.79,49.16-51.4,49.16Z"/></g></g></g></svg>